<?xml version="1.0" standalone="no"?>
<!DOCTYPE svg PUBLIC "-//W3C//DTD SVG 20010904//EN"
 "http://www.w3.org/TR/2001/REC-SVG-20010904/DTD/svg10.dtd">
<svg version="1.0" xmlns="http://www.w3.org/2000/svg"
 width="1366.000000pt" height="612.000000pt" viewBox="0 0 1366.000000 612.000000"
 preserveAspectRatio="xMidYMid meet">

<g transform="translate(0.000000,612.000000) scale(0.100000,-0.100000)"
fill="#000000" stroke="none">
<path d="M0 3060 l0 -3060 6830 0 6830 0 0 1811 c0 1624 -2 1809 -15 1795 -19
-19 -44 -11 -50 18 -3 11 -4 578 -3 1259 l3 1237 -6797 0 -6798 0 0 -3060z
m10500 2825 c42 -22 81 -105 50 -105 -5 0 -10 9 -10 21 0 27 -52 79 -79 79
-12 0 -21 5 -21 10 0 15 27 12 60 -5z m-1486 -16 c22 -17 26 -28 26 -73 0 -28
-5 -57 -12 -64 -7 -7 -35 -12 -63 -12 -28 0 -56 5 -63 12 -7 7 -12 39 -12 75
0 48 4 64 18 72 28 17 78 12 106 -10z m-4099 -29 c30 -31 36 -43 27 -52 -7 -7
-12 -25 -12 -40 0 -28 0 -28 -65 -28 -65 0 -65 0 -65 28 0 15 -5 33 -12 40 -9
9 -3 21 27 52 21 22 44 40 50 40 6 0 29 -18 50 -40z m1293 28 c14 -14 16 -54
2 -63 -5 -3 -1 -14 10 -25 11 -11 20 -28 20 -37 0 -13 -4 -11 -13 7 -21 41
-84 40 -105 -2 -8 -18 -11 -19 -11 -5 -1 9 8 26 19 37 11 11 15 22 10 25 -15
9 -12 42 6 59 18 19 45 21 62 4z m272 -11 c0 -20 4 -23 30 -19 24 3 32 0 41
-22 9 -20 9 -32 1 -51 -10 -21 -18 -25 -57 -25 l-45 0 0 70 c0 56 3 70 15 70
9 0 15 -9 15 -23z m1078 -41 l-3 -51 -40 -5 c-29 -4 -35 -7 -22 -12 9 -4 17
-12 17 -18 0 -6 -7 -6 -19 2 -15 9 -23 9 -35 -1 -10 -8 -16 -9 -16 -3 0 6 8
16 18 21 14 8 10 10 -20 11 l-38 0 0 54 0 55 38 3 c20 2 56 1 80 -1 l43 -3 -3
-52z m402 54 c0 -5 -4 -10 -10 -10 -5 0 -10 5 -10 10 0 6 5 10 10 10 6 0 10
-4 10 -10z m2820 0 c0 -5 -7 -10 -15 -10 -8 0 -15 5 -15 10 0 6 7 10 15 10 8
0 15 -4 15 -10z m370 -13 c0 -20 4 -23 30 -19 24 3 32 0 41 -22 9 -20 9 -32 1
-51 -10 -21 -18 -25 -57 -25 l-45 0 0 70 c0 56 3 70 15 70 9 0 15 -9 15 -23z
m713 -27 c-5 -33 -3 -40 12 -40 13 0 16 6 11 25 -5 19 -2 25 9 25 24 0 15 -52
-10 -65 -11 -5 -20 -16 -20 -24 0 -8 -6 -16 -12 -18 -10 -4 -13 14 -13 65 0
38 3 72 6 75 14 14 22 -5 17 -43z m288 0 c23 0 25 -13 3 -31 -9 -8 -14 -22
-11 -37 4 -20 2 -23 -17 -17 -29 9 -38 9 -60 0 -16 -7 -18 -5 -14 18 3 16 0
31 -8 38 -20 17 -17 26 10 33 14 3 28 16 32 28 6 22 7 21 26 -5 11 -15 28 -27
39 -27z m-10661 -5 c0 -50 8 -55 35 -25 10 11 23 20 28 20 6 0 3 -8 -6 -18
-22 -24 -21 -31 5 -59 12 -13 17 -23 11 -23 -5 0 -20 11 -33 25 -13 14 -27 25
-32 25 -4 0 -8 -11 -8 -25 0 -14 -4 -25 -10 -25 -6 0 -10 32 -10 75 0 43 4 75
10 75 6 0 10 -20 10 -45z m3560 20 c0 -22 4 -25 35 -25 31 0 35 3 35 25 0 14
5 25 10 25 6 0 10 -28 10 -65 0 -37 -4 -65 -10 -65 -5 0 -10 14 -10 30 0 28
-3 30 -35 30 -32 0 -35 -2 -35 -30 0 -16 -4 -30 -10 -30 -6 0 -10 28 -10 65 0
37 4 65 10 65 6 0 10 -11 10 -25z m1368 -38 c24 -56 23 -89 -2 -54 -17 22 -55
22 -71 1 -6 -9 -16 -15 -22 -13 -14 6 44 132 59 127 6 -2 22 -30 36 -61z m412
48 c0 -8 8 -15 18 -15 16 -1 16 -1 0 -14 -22 -16 -24 -66 -3 -66 8 0 15 -5 15
-11 0 -6 -10 -9 -22 -7 -19 2 -24 11 -29 48 -6 49 -2 80 12 80 5 0 9 -7 9 -15z
m904 -7 c16 -26 -4 -52 -43 -56 -25 -3 -31 -8 -31 -28 0 -13 -4 -24 -10 -24
-6 0 -10 29 -10 66 l0 65 41 -3 c27 -2 46 -9 53 -20z m496 8 c0 -8 6 -17 13
-20 10 -5 10 -7 0 -12 -7 -3 -13 -18 -13 -34 0 -27 2 -28 45 -28 49 0 60 12
19 22 -19 5 -25 12 -22 29 2 17 11 23 36 25 18 2 32 -1 32 -7 0 -6 -11 -11
-25 -11 -34 0 -31 -13 5 -27 17 -6 30 -18 30 -27 0 -19 -29 -26 -95 -23 l-50
2 -6 45 c-3 24 -4 53 -1 62 5 21 32 24 32 4z m994 -8 c8 -13 8 -23 -2 -38 -9
-15 -10 -26 -1 -41 17 -32 0 -37 -25 -6 -27 34 -46 35 -46 2 0 -14 -4 -25 -10
-25 -6 0 -10 29 -10 66 l0 65 41 -3 c27 -2 46 -9 53 -20z m1496 7 c18 -21 6
-29 -19 -13 -26 16 -54 1 -59 -31 -7 -43 41 -68 67 -37 10 11 8 15 -6 19 -12
3 -8 5 10 6 23 1 27 -3 27 -27 0 -27 -3 -29 -45 -30 -50 -2 -85 24 -85 65 0
50 79 85 110 48z m110 1 c0 -8 6 -17 13 -20 10 -5 10 -7 0 -12 -19 -8 -17 -64
2 -64 8 0 15 -5 15 -11 0 -6 -12 -9 -27 -7 -25 3 -29 8 -34 48 -3 24 -4 53 -1
62 5 21 32 24 32 4z m70 -11 c0 -21 5 -25 30 -25 25 0 30 4 30 25 0 16 6 25
15 25 12 0 15 -14 15 -65 0 -51 -3 -65 -15 -65 -10 0 -15 10 -15 30 0 27 -3
30 -30 30 -27 0 -30 -3 -30 -30 0 -20 -5 -30 -15 -30 -12 0 -15 14 -15 65 0
51 3 65 15 65 9 0 15 -9 15 -25z m-9590 -10 c0 -14 6 -25 13 -25 8 0 24 11 37
25 13 14 28 25 34 25 5 0 -2 -13 -17 -28 -15 -15 -27 -33 -27 -38 0 -6 16 -25
36 -42 20 -18 30 -32 22 -32 -8 0 -27 14 -43 30 -16 17 -35 30 -42 30 -8 0
-13 -12 -13 -30 0 -20 -5 -30 -15 -30 -12 0 -15 14 -15 70 0 56 3 70 15 70 9
0 15 -9 15 -25z m9180 15 c18 -9 46 -70 32 -70 -4 0 -15 14 -24 30 -10 18 -25
30 -38 30 -11 0 -20 5 -20 10 0 13 26 13 50 0z m-5234 -35 c15 -23 15 -27 0
-50 -11 -17 -26 -25 -44 -25 -35 0 -52 16 -52 50 0 34 17 50 52 50 18 0 33 -8
44 -25z m172 13 c18 -15 16 -88 -3 -88 -11 0 -15 11 -15 41 0 33 -3 40 -17 37
-13 -2 -19 -14 -21 -41 -4 -47 -22 -49 -22 -2 0 23 -6 38 -16 42 -20 7 -34
-13 -34 -49 0 -16 -4 -28 -10 -28 -5 0 -10 22 -10 49 l0 48 68 0 c37 1 73 -4
80 -9z m116 -10 c24 -34 20 -38 -31 -38 -44 -1 -47 -2 -29 -15 13 -10 23 -12
30 -5 5 5 16 10 24 10 12 0 12 -3 2 -15 -15 -18 -61 -20 -78 -3 -15 15 -15 43
-2 69 15 27 64 25 84 -3z m1122 -3 c15 -23 15 -27 0 -50 -11 -17 -26 -25 -44
-25 -35 0 -52 16 -52 50 0 34 17 50 52 50 18 0 33 -8 44 -25z m46 -12 c2 -30
7 -38 23 -38 16 0 21 8 23 38 4 46 22 49 22 3 0 -19 3 -41 6 -49 5 -13 -3 -15
-43 -14 l-48 2 -3 48 c-4 55 15 65 20 10z m1098 28 c0 -5 -7 -11 -15 -15 -9
-3 -15 -19 -15 -41 0 -24 -4 -35 -15 -35 -11 0 -15 12 -15 50 0 49 1 50 30 50
17 0 30 -4 30 -9z m102 -16 c17 -37 -3 -75 -38 -75 -31 0 -64 25 -64 48 0 50
82 71 102 27z m46 -42 c-3 -66 -4 -68 -30 -71 -32 -4 -38 13 -8 21 17 4 20 14
20 61 0 32 4 56 10 56 7 0 10 -25 8 -67z m112 48 c17 -33 11 -41 -30 -41 -22
0 -40 -4 -40 -9 0 -15 23 -19 43 -9 21 11 32 5 22 -11 -16 -27 -95 1 -95 33 0
48 78 76 100 37z m107 2 c3 -7 -8 -11 -29 -10 -29 2 -33 -1 -33 -23 0 -22 4
-25 33 -23 21 1 32 -3 29 -10 -5 -17 -55 -21 -73 -6 -17 14 -18 61 -2 77 15
15 70 12 75 -5z m1157 -5 c24 -34 20 -38 -31 -38 -44 -1 -47 -2 -29 -15 13
-10 23 -12 30 -5 5 5 16 10 24 10 12 0 12 -3 2 -15 -15 -18 -61 -20 -78 -3
-15 15 -15 43 -2 69 15 27 64 25 84 -3z m101 12 c4 -6 -7 -10 -24 -10 -40 0
-40 -12 0 -27 46 -18 36 -48 -15 -48 -22 0 -41 5 -43 12 -3 9 4 11 26 7 37 -8
43 11 6 20 -24 6 -34 34 -18 49 10 11 61 8 68 -3z m45 -31 c0 -33 3 -40 18
-37 12 2 18 14 20 41 2 24 8 37 18 37 10 0 14 -13 14 -48 l0 -49 -42 -1 c-48
-2 -58 8 -58 61 0 26 4 37 15 37 11 0 15 -11 15 -41z m240 21 c16 -29 12 -80
-5 -80 -11 0 -15 11 -15 41 0 33 -3 40 -17 37 -13 -2 -19 -14 -21 -41 -5 -54
-32 -51 -32 4 0 33 -3 40 -17 37 -13 -2 -19 -14 -21 -41 -5 -54 -22 -45 -22
12 l0 48 70 0 c58 1 72 -2 80 -17z m114 -2 c24 -34 20 -38 -30 -38 -30 0 -43
-4 -38 -11 4 -7 20 -8 42 -4 32 6 34 5 23 -9 -16 -19 -62 -21 -79 -4 -15 15
-15 43 -2 69 15 27 64 25 84 -3z m946 -28 c0 -38 -4 -50 -15 -50 -11 0 -15 12
-15 50 0 38 4 50 15 50 11 0 15 -12 15 -50z m252 13 c2 -30 7 -38 23 -38 16 0
21 8 23 38 4 46 22 49 22 3 0 -19 3 -41 6 -49 5 -13 -3 -15 -43 -14 l-48 2 -3
48 c-4 55 15 65 20 10z m-554 4 c16 -19 -19 -72 -57 -85 -38 -13 -40 -1 -4 27
14 12 23 24 20 27 -3 4 -18 -8 -33 -25 -34 -41 -41 -34 -15 17 24 48 67 66 89
39z m-8828 -77 c0 -5 -4 -10 -10 -10 -5 0 -10 5 -10 10 0 6 5 10 10 10 6 0 10
-4 10 -10z m9257 -1882 c-11 -7 7 -12 40 -11 7 1 10 -4 6 -10 -4 -6 0 -8 11
-4 10 4 15 3 11 -3 -6 -9 8 -14 28 -11 5 1 6 -3 2 -8 -3 -6 4 -15 15 -21 11
-6 20 -8 20 -4 0 4 9 -1 20 -11 11 -10 17 -21 14 -26 -7 -12 26 -60 38 -53 5
3 8 0 7 -7 -2 -8 0 -25 4 -39 5 -21 13 -26 44 -28 53 -4 66 -18 46 -48 -23
-36 -14 -126 17 -159 l23 -25 -108 0 c-60 0 -106 -3 -103 -6 4 -3 43 -5 89 -5
90 1 104 -6 20 -10 -42 -2 -56 -7 -68 -25 -8 -13 -38 -38 -66 -56 l-51 -33
-146 -3 c-132 -2 -143 -1 -120 12 16 10 52 15 97 16 106 0 173 32 152 71 -8
15 -23 19 -77 21 l-67 1 60 7 60 7 -77 1 c-42 1 -79 6 -83 11 -6 11 -64 4
-119 -16 -45 -15 -128 -17 -142 -3 -5 5 -18 11 -29 13 -11 1 -27 7 -35 12 -21
13 -71 7 -91 -11 -9 -8 -26 -16 -38 -19 -11 -2 -26 -7 -31 -10 -6 -4 -1 17 10
46 12 28 19 56 18 61 -2 5 -12 -14 -22 -42 -10 -28 -20 -49 -23 -46 -3 2 -28
69 -57 148 l-53 143 105 3 c58 1 106 1 109 -1 2 -2 -11 -43 -28 -91 -17 -48
-29 -89 -26 -92 3 -3 19 38 37 90 l32 96 79 0 c62 0 78 -3 73 -12 -5 -7 -57
-73 -117 -146 -60 -73 -108 -135 -106 -137 5 -4 230 271 243 297 5 10 14 18
20 17 44 -5 47 -1 70 102 6 26 53 54 106 62 44 7 168 2 157 -5z m-529 -45
c-60 -2 -156 -2 -215 0 -60 1 -11 3 107 3 118 0 167 -2 108 -3z m108 -21 c14
-10 54 -77 54 -91 0 -7 -25 -11 -70 -11 -38 0 -70 3 -70 7 0 4 19 28 42 53 42
44 42 44 -10 -5 l-52 -49 -52 49 c-29 28 -41 37 -28 20 14 -16 31 -34 38 -38
6 -4 12 -15 12 -22 0 -12 -18 -15 -90 -15 -49 0 -90 3 -90 7 0 4 19 28 42 53
l43 45 -50 -47 c-28 -27 -54 -48 -59 -48 -4 0 -28 21 -53 48 -30 32 -38 37
-24 16 11 -17 27 -37 36 -44 28 -23 16 -30 -50 -30 -42 0 -65 4 -65 11 0 14
40 81 54 91 6 4 105 7 221 7 116 0 215 -3 221 -7z m615 -69 c13 -16 12 -17 -3
-4 -10 7 -18 15 -18 17 0 8 8 3 21 -13z m-901 -205 c52 -143 58 -176 23 -127
-7 9 -58 72 -114 140 -56 68 -107 130 -112 137 -8 10 5 12 68 10 l78 -3 57
-157z m1161 42 c13 -7 19 -21 19 -43 0 -41 -15 -57 -55 -57 -17 0 -36 -5 -42
-11 -17 -17 -35 -1 -23 21 5 10 10 30 10 44 0 14 9 31 22 40 26 19 42 20 69 6z
m-7087 -26 c7 -19 2 -18 -19 6 -16 17 -16 20 -3 15 9 -4 19 -13 22 -21z m-55
-83 l55 -73 11 38 c11 40 40 58 51 31 8 -22 -23 -187 -41 -214 -21 -31 -61
-46 -103 -38 -27 5 -45 23 -108 107 -68 91 -74 103 -59 114 13 9 14 17 6 31
-12 24 2 48 23 40 11 -5 16 -1 16 13 0 21 24 27 35 10 10 -15 25 -12 25 6 0
33 37 6 89 -65z m-2049 -57 c0 -121 1 -126 20 -121 15 4 20 0 20 -14 0 -14 -7
-19 -28 -19 -47 0 -52 13 -52 152 0 121 1 128 20 128 19 0 20 -7 20 -126z
m110 0 c0 -121 1 -126 20 -121 15 4 20 0 20 -14 0 -14 -7 -19 -28 -19 -47 0
-52 13 -52 152 0 121 1 128 20 128 19 0 20 -7 20 -126z m660 70 c0 -55 0 -55
22 -40 24 17 65 21 85 8 21 -13 33 -61 33 -128 0 -57 -2 -64 -20 -64 -18 0
-20 7 -20 69 0 95 -33 128 -80 81 -16 -16 -20 -33 -20 -85 0 -58 -2 -65 -20
-65 -19 0 -20 7 -20 140 0 133 1 140 20 140 18 0 20 -7 20 -56z m-1280 -14 l0
-60 75 0 75 0 0 60 c0 53 2 60 20 60 19 0 20 -7 20 -135 0 -128 -1 -135 -20
-135 -18 0 -20 7 -20 60 l0 60 -75 0 -75 0 0 -60 c0 -53 -2 -60 -20 -60 -19 0
-20 7 -20 135 0 128 1 135 20 135 18 0 20 -7 20 -60z m1210 45 c0 -11 -12 -15
-50 -15 l-50 0 0 -120 c0 -100 -2 -120 -15 -120 -12 0 -15 20 -15 120 l0 120
-50 0 c-38 0 -50 4 -50 15 0 12 19 15 115 15 96 0 115 -3 115 -15z m890 -75
c0 -83 -1 -90 -20 -90 -19 0 -20 7 -20 90 0 83 1 90 20 90 19 0 20 -7 20 -90z
m487 58 c-3 -8 -6 -5 -6 6 -1 11 2 17 5 13 3 -3 4 -12 1 -19z m-2186 -67 c17
-17 29 -40 29 -55 0 -26 -1 -26 -80 -26 -84 0 -95 -7 -63 -42 20 -22 66 -23
88 -2 9 9 23 13 33 9 15 -6 13 -10 -11 -31 -41 -35 -99 -33 -138 5 -64 65 -20
171 71 171 33 0 48 -6 71 -29z m444 5 c97 -97 -34 -239 -136 -148 -69 62 -24
172 72 172 29 0 47 -7 64 -24z m764 9 c25 -12 51 -57 51 -86 0 -5 -38 -9 -85
-9 -89 0 -99 -6 -65 -40 24 -24 67 -26 91 -4 17 16 39 12 39 -6 0 -14 -55 -40
-84 -40 -56 0 -107 51 -106 107 2 71 89 115 159 78z m121 -2 c0 -15 1 -15 18
0 22 20 52 22 52 5 -1 -7 -15 -22 -33 -33 -30 -19 -32 -24 -35 -88 -3 -59 -5
-67 -22 -67 -19 0 -20 7 -20 100 0 93 1 100 20 100 12 0 20 -7 20 -17z m261
-12 c17 -17 29 -40 29 -55 0 -26 -1 -26 -80 -26 -84 0 -95 -7 -63 -42 20 -22
61 -23 84 -2 11 10 25 14 36 9 16 -6 15 -9 -10 -31 -53 -46 -135 -26 -162 40
-18 42 -8 81 27 111 43 36 100 34 139 -4z m5062 5 c4 -6 6 -56 5 -112 -3 -92
-5 -104 -30 -137 -21 -26 -28 -47 -28 -80 0 -30 -6 -49 -18 -60 -17 -15 -23
-16 -68 -2 -27 8 -64 24 -82 35 -32 20 -32 20 -28 87 5 77 -8 143 -29 143 -23
0 -45 30 -45 60 0 44 48 51 71 9 15 -30 26 -23 45 31 l18 50 90 -7 c50 -3 95
-11 99 -17z m1785 -102 c12 -8 22 -24 22 -34 0 -10 6 -21 13 -23 6 -3 -55 -5
-138 -4 -82 0 -128 2 -102 4 32 3 50 9 54 20 7 17 77 51 108 52 11 1 31 -6 43
-15z m-6504 -20 c3 -8 2 -12 -4 -9 -6 3 -10 10 -10 16 0 14 7 11 14 -7z m51
-2 c-3 -3 -11 0 -18 7 -9 10 -8 11 6 5 10 -3 15 -9 12 -12z m-285 -27 c0 -18
-5 -25 -20 -25 -15 0 -20 7 -20 25 0 18 5 25 20 25 15 0 20 -7 20 -25z m6415
10 c12 -7 30 -15 40 -18 11 -2 -28 -5 -87 -6 -97 -1 -107 -3 -102 -18 4 -13 3
-14 -3 -6 -7 9 -66 15 -209 19 -109 3 -215 11 -234 17 l-35 12 50 5 c28 3 165
6 305 7 197 1 260 -1 275 -12z m582 -41 c-3 -3 -12 -4 -19 -1 -8 3 -5 6 6 6
11 1 17 -2 13 -5z m-800 -140 c-3 -3 -12 -4 -19 -1 -8 3 -5 6 6 6 11 1 17 -2
13 -5z m15 -31 c23 -21 23 -36 -1 -57 -26 -24 -53 -17 -65 16 -17 48 27 76 66
41z m-432 -2 c0 -4 -9 -20 -21 -35 -18 -23 -20 -32 -11 -66 14 -55 1 -74 -93
-137 -44 -30 -102 -75 -129 -99 l-50 -44 -138 0 c-132 0 -138 -1 -152 -22 -8
-13 -26 -92 -40 -177 -14 -85 -28 -156 -31 -159 -3 -3 -43 0 -91 5 -70 9 -109
7 -215 -8 -127 -17 -288 -26 -319 -16 -8 2 -28 8 -45 13 -41 13 -58 52 -65
148 l-5 79 -28 -24 c-25 -22 -28 -32 -33 -109 -3 -47 -13 -100 -21 -119 -31
-69 2 -264 60 -363 42 -71 156 -176 214 -198 36 -13 54 -16 59 -9 4 8 9 7 15
-2 6 -10 9 -8 9 9 0 13 4 20 10 17 6 -3 15 6 20 20 14 37 13 43 -12 48 -13 2
23 5 79 6 81 1 107 5 123 18 29 25 26 51 -7 57 -52 9 131 -5 222 -17 56 -7 78
-13 58 -15 -20 -2 -33 -9 -33 -17 0 -8 -12 -16 -27 -18 -20 -3 -15 -5 17 -7
37 -2 40 -3 18 -9 -27 -6 -27 -6 12 -23 37 -15 40 -15 41 0 1 11 3 8 8 -6 3
-13 4 -43 3 -68 -4 -43 -5 -44 -41 -45 l-36 -2 35 -7 c23 -5 -7 -8 -87 -9 -92
-1 -123 2 -124 12 0 10 -2 10 -6 0 -3 -8 -22 -13 -46 -12 -35 1 -38 2 -17 8
14 4 -46 10 -140 13 -91 4 -166 3 -168 -2 -2 -4 -12 -5 -23 -3 -16 5 -18 8 -7
14 9 6 6 9 -10 9 -51 0 -123 61 -180 152 -16 26 -33 44 -37 40 -5 -4 -5 -2 -1
5 8 15 -14 64 -26 57 -5 -4 -9 2 -8 12 1 11 2 28 1 39 -1 17 -3 18 -12 5 -8
-12 -9 -11 -5 5 7 27 -17 128 -28 118 -5 -5 -6 1 -2 12 7 20 -11 152 -24 170
-4 6 -6 116 -6 245 1 224 2 237 24 277 22 42 48 63 87 70 61 12 196 25 201 21
3 -3 -4 -21 -16 -39 -17 -29 -80 -209 -80 -231 0 -20 89 -51 157 -56 81 -5 76
3 53 -89 l-8 -33 156 0 c127 1 167 4 212 20 60 21 74 18 64 -12 -4 -15 -2 -19
7 -16 10 3 17 37 23 114 l9 109 53 38 c51 36 55 37 77 22 22 -14 26 -14 58 8
19 12 85 54 147 92 90 55 119 78 138 111 34 57 48 68 64 49 17 -21 19 -20 79
25 49 37 91 52 91 31z m1074 0 c4 -5 -3 -7 -14 -4 -23 6 -26 13 -6 13 8 0 17
-4 20 -9z m23 -42 c1 -16 -6 -34 -18 -44 -40 -37 -96 24 -57 63 6 6 25 11 42
9 26 -2 31 -7 33 -28z m-680 -45 c-3 -3 -12 -4 -19 -1 -8 3 -5 6 6 6 11 1 17
-2 13 -5z m338 -115 c-3 -4 -1 -10 5 -14 14 -8 12 -47 -3 -65 -12 -15 -60 -23
-51 -8 3 4 1 8 -5 8 -16 0 -22 36 -11 61 8 17 20 24 40 25 16 1 27 -2 25 -7z
m-8045 -108 c0 -39 4 -72 9 -75 5 -4 41 28 79 70 44 48 76 75 87 72 13 -2 3
-18 -40 -65 -35 -40 -54 -67 -49 -75 4 -7 29 -41 56 -74 26 -34 48 -65 48 -68
0 -3 -8 -6 -18 -6 -11 0 -38 27 -66 65 -26 36 -51 65 -56 65 -20 0 -50 -55
-50 -91 0 -28 -4 -39 -15 -39 -13 0 -15 23 -15 145 0 122 2 145 15 145 12 0
15 -14 15 -69z m260 49 c0 -13 -7 -20 -20 -20 -13 0 -20 7 -20 20 0 13 7 20
20 20 13 0 20 -7 20 -20z m290 -36 l0 -56 25 16 c35 23 81 21 99 -6 22 -32 23
-188 1 -188 -12 0 -15 14 -15 64 0 75 -5 93 -31 107 -20 10 -56 -3 -71 -25 -4
-6 -8 -41 -8 -78 0 -61 -2 -68 -20 -68 -19 0 -20 7 -20 145 0 138 1 145 20
145 18 0 20 -7 20 -56z m800 -21 l0 -78 76 78 c67 67 104 93 104 70 0 -3 -25
-33 -56 -65 -39 -41 -53 -62 -46 -71 5 -7 33 -42 61 -79 49 -63 51 -68 29 -68
-17 1 -36 19 -71 66 l-49 66 -24 -23 c-18 -17 -24 -33 -24 -66 0 -36 -3 -43
-20 -43 -19 0 -20 7 -20 145 0 138 1 145 20 145 18 0 20 -7 20 -77z m-1980
-73 c0 -133 -1 -140 -20 -140 -19 0 -20 7 -20 140 0 133 1 140 20 140 19 0 20
-7 20 -140z m90 95 c0 -38 -3 -45 -20 -45 -17 0 -20 7 -20 45 0 38 3 45 20 45
17 0 20 -7 20 -45z m146 -40 c26 -47 50 -85 53 -85 3 0 26 38 51 83 33 60 51
83 68 85 22 3 22 3 22 -137 0 -133 -1 -141 -20 -141 -18 0 -20 8 -22 98 l-3
97 -40 -72 c-23 -42 -47 -73 -55 -73 -9 0 -34 32 -58 73 l-41 72 -1 -97 c0
-98 0 -98 -25 -98 l-25 0 0 140 0 140 25 0 c20 0 32 -14 71 -85z m654 -90 c0
-98 -1 -105 -20 -105 -19 0 -20 7 -20 105 0 98 1 105 20 105 19 0 20 -7 20
-105z m188 93 c19 -19 15 -41 -5 -33 -35 15 -73 17 -88 5 -14 -12 -14 -15 0
-30 9 -10 30 -21 47 -24 64 -13 88 -65 48 -101 -25 -22 -73 -24 -118 -6 -34
14 -38 38 -6 33 70 -13 91 -13 102 1 15 18 3 29 -51 47 -67 21 -86 61 -47 100
23 23 98 28 118 8z m438 -9 c14 -15 21 -43 25 -102 4 -45 4 -84 2 -87 -2 -2
-13 1 -24 8 -16 10 -24 10 -35 2 -24 -21 -86 -15 -106 10 -20 25 -22 43 -8 70
12 22 81 44 110 35 28 -9 35 14 11 38 -19 19 -25 20 -63 10 -50 -13 -73 3 -35
24 36 20 101 16 123 -8z m114 6 c0 -19 9 -19 34 0 30 23 82 19 100 -7 22 -30
23 -188 2 -188 -10 0 -15 20 -18 76 -4 83 -22 110 -62 98 -39 -12 -56 -45 -56
-111 0 -49 -3 -63 -15 -63 -12 0 -15 18 -15 105 0 87 3 105 15 105 8 0 15 -7
15 -15z m590 -56 c0 -86 11 -109 50 -109 46 0 70 39 70 116 0 50 3 64 15 64
12 0 15 -16 15 -82 0 -46 3 -93 6 -105 5 -17 2 -23 -10 -23 -9 0 -19 7 -23 15
-5 14 -8 14 -30 0 -37 -24 -83 -22 -105 5 -24 30 -27 190 -3 190 12 0 15 -15
15 -71z m240 56 c0 -19 9 -19 34 0 28 21 73 19 93 -4 16 -20 17 -20 41 0 30
23 69 25 94 2 15 -13 18 -32 18 -105 0 -72 -3 -88 -15 -88 -12 0 -15 15 -15
74 0 104 -32 134 -85 81 -22 -21 -25 -33 -25 -90 0 -51 -3 -65 -15 -65 -12 0
-15 15 -15 74 0 104 -32 134 -85 81 -22 -21 -25 -33 -25 -90 0 -51 -3 -65 -15
-65 -12 0 -15 18 -15 105 0 87 3 105 15 105 8 0 15 -7 15 -15z m477 -7 c26
-29 41 -188 18 -188 -7 0 -15 4 -17 10 -2 6 -18 4 -42 -4 -72 -25 -130 16
-107 76 11 30 76 54 117 44 29 -8 33 14 7 39 -16 17 -53 17 -95 0 -13 -5 -18
-2 -18 8 0 41 103 52 137 15z m113 7 c0 -19 9 -19 34 0 26 19 46 19 46 0 0 -9
-12 -20 -27 -26 -38 -14 -43 -25 -43 -101 0 -61 -2 -68 -20 -68 -19 0 -20 7
-20 105 0 87 3 105 15 105 8 0 15 -7 15 -15z m3257 -212 c-2 -38 -3 -7 -3 67
0 74 1 105 3 68 2 -38 2 -98 0 -135z m1530 145 c13 -17 23 -96 13 -100 -4 -2
-20 -70 -34 -153 -20 -118 -29 -153 -45 -166 -11 -9 -17 -19 -14 -23 4 -3 -1
-6 -10 -6 -9 0 -19 5 -22 10 -4 6 -90 10 -226 10 -198 0 -219 2 -219 17 0 30
61 377 70 401 10 22 10 22 244 22 175 0 236 -3 243 -12z m1421 -214 c21 -15
22 -21 22 -194 0 -149 -3 -181 -16 -194 -13 -13 -43 -16 -167 -16 l-151 0 -29
28 c-23 22 -38 27 -77 27 -39 0 -54 -5 -77 -27 l-29 -28 -151 0 c-124 0 -154
3 -167 16 -24 24 -24 359 1 386 15 17 41 18 417 18 347 0 405 -2 424 -16z
m-2755 -281 c5 -7 4 -13 -1 -13 -16 0 -22 41 -20 145 l2 100 5 -110 c3 -60 10
-116 14 -122z m3175 145 c8 -8 11 -51 10 -137 l-2 -126 -6 125 c-5 120 -6 125
-30 137 -22 11 -23 13 -4 13 11 0 25 -5 32 -12z m-2442 -10 c-3 -7 -7 -25 -10
-40 l-6 -28 -109 0 c-87 0 -111 3 -122 16 -26 31 1 48 87 55 147 10 164 10
160 -3z m-899 -90 c-3 -8 -6 -5 -6 6 -1 11 2 17 5 13 3 -3 4 -12 1 -19z m3103
-47 c6 -12 10 -118 10 -276 0 -158 -4 -264 -10 -276 -6 -10 -21 -19 -33 -18
l-22 0 23 9 22 9 0 276 0 276 -22 9 -23 9 22 0 c12 1 27 -8 33 -18z m-1721
-89 c-1 -42 -4 -102 -8 -132 -6 -39 -7 -17 -7 81 1 75 4 135 9 132 4 -2 7 -39
6 -81z m-1189 43 c14 -19 14 -19 -2 -6 -10 7 -18 18 -18 24 0 6 1 8 3 6 1 -2
9 -13 17 -24z m106 -86 c3 -6 -5 -3 -20 6 -14 10 -26 19 -26 22 0 7 39 -17 46
-28z m1867 -6 c-13 -2 -33 -2 -45 0 -13 2 -3 4 22 4 25 0 35 -2 23 -4z m-806
-190 c-3 -10 -5 -2 -5 17 0 19 2 27 5 18 2 -10 2 -26 0 -35z m1567 31 c24 -24
24 -359 -1 -386 -14 -16 -34 -18 -170 -18 -129 0 -155 2 -160 15 -8 22 -56 45
-95 45 -34 0 -98 -32 -98 -50 0 -6 -56 -10 -152 -10 -127 0 -154 3 -170 17
-16 14 -18 34 -18 191 0 149 2 178 17 194 15 17 42 18 424 18 357 0 410 -2
423 -16z m410 -131 c-21 -16 -34 -17 -34 -3 0 6 6 10 14 10 18 0 26 21 28 83
2 49 2 48 5 -13 3 -53 1 -67 -13 -77z m-1987 10 c-3 -10 -5 -2 -5 17 0 19 2
27 5 18 2 -10 2 -26 0 -35z m-14 -74 c-6 -6 -7 3 -4 23 4 28 6 29 9 9 2 -13 0
-27 -5 -32z m-6383 1 c0 -11 -7 -20 -15 -20 -8 0 -15 9 -15 20 0 11 7 20 15
20 8 0 15 -9 15 -20z m620 0 c0 -11 -7 -20 -15 -20 -8 0 -15 9 -15 20 0 11 7
20 15 20 8 0 15 -9 15 -20z m470 0 c0 -11 -7 -20 -15 -20 -8 0 -15 9 -15 20 0
11 7 20 15 20 8 0 15 -9 15 -20z m-2202 -23 c24 -24 27 -35 27 -93 0 -61 -2
-67 -33 -95 -29 -26 -40 -29 -97 -29 l-65 0 0 126 0 126 70 -4 c60 -3 74 -8
98 -31z m304 1 c2 -25 8 -34 26 -36 12 -2 22 -7 22 -12 0 -5 -10 -10 -22 -12
-19 -2 -24 -10 -26 -42 -5 -61 4 -86 33 -86 16 0 25 -6 25 -15 0 -8 -4 -15 -9
-15 -5 0 -16 -3 -24 -6 -9 -3 -25 4 -36 15 -17 17 -21 34 -21 85 0 42 -4 66
-12 70 -10 5 -10 7 0 12 6 3 12 21 12 40 0 46 27 47 32 2z m515 19 c15 -8 19
-17 14 -26 -7 -10 -13 -10 -29 -2 -50 27 -119 0 -96 -36 6 -9 33 -24 62 -33
66 -22 82 -36 82 -71 0 -44 -31 -69 -85 -69 -45 0 -105 22 -105 39 0 18 14 19
42 5 38 -19 98 -15 112 9 14 24 -8 41 -79 62 -54 15 -65 28 -65 71 0 55 86 85
147 51z m803 -22 c0 -28 4 -35 20 -35 11 0 20 -4 20 -10 0 -5 -9 -10 -20 -10
-18 0 -20 -7 -20 -65 0 -63 1 -65 25 -65 31 0 34 -25 3 -33 -44 -12 -58 8 -58
83 0 55 -4 71 -17 80 -17 10 -17 10 0 20 10 7 17 23 17 40 0 20 5 30 15 30 10
0 15 -11 15 -35z m372 3 c2 -25 8 -34 26 -36 12 -2 22 -7 22 -12 0 -5 -10 -10
-22 -12 -19 -2 -24 -10 -26 -42 -5 -61 4 -86 33 -86 16 0 25 -6 25 -15 0 -8
-4 -15 -9 -15 -5 0 -16 -3 -24 -6 -9 -3 -25 4 -36 15 -17 17 -21 34 -21 85 0
42 -4 66 -12 70 -10 5 -10 7 0 12 6 3 12 21 12 40 0 46 27 47 32 2z m500 0 c2
-25 8 -34 26 -36 12 -2 22 -7 22 -12 0 -5 -10 -10 -22 -12 -19 -2 -24 -10 -26
-42 -5 -61 4 -86 33 -86 16 0 25 -6 25 -15 0 -8 -4 -15 -9 -15 -5 0 -16 -3
-24 -6 -9 -3 -25 4 -36 15 -17 17 -21 34 -21 85 0 42 -4 66 -12 70 -10 5 -10
7 0 12 6 3 12 21 12 40 0 46 27 47 32 2z m-2324 -39 c35 -12 47 -39 56 -126 4
-41 2 -53 -9 -53 -8 0 -17 5 -20 10 -4 7 -14 6 -28 -1 -27 -15 -74 -14 -93 2
-8 6 -14 24 -14 40 0 37 33 59 88 59 44 0 44 0 29 23 -15 23 -54 28 -89 13
-13 -6 -18 -4 -18 8 0 9 14 19 33 25 17 5 32 10 33 10 1 1 15 -4 32 -10z m343
-18 c23 -22 33 -161 13 -161 -8 0 -14 4 -14 9 0 6 -16 3 -35 -4 -39 -17 -78
-8 -94 23 -24 44 15 82 84 82 38 0 47 18 20 40 -15 12 -41 10 -79 -5 -14 -6
-17 -4 -14 11 6 35 86 39 119 5z m494 15 c19 -8 35 -19 35 -25 0 -19 -20 -22
-43 -6 -59 38 -118 -44 -70 -97 17 -19 68 -25 78 -8 10 16 35 12 35 -5 0 -9
-14 -22 -32 -29 -38 -17 -85 -6 -110 25 -38 46 -10 141 45 152 12 2 23 5 25 6
1 0 18 -6 37 -13z m105 -81 c0 -78 -3 -95 -15 -95 -12 0 -15 17 -15 95 0 78 3
95 15 95 12 0 15 -17 15 -95z m197 62 c12 -12 25 -34 28 -49 l7 -28 -76 0
c-84 0 -99 -14 -50 -47 24 -16 28 -16 60 2 41 22 56 13 27 -16 -33 -33 -91
-28 -125 10 -81 91 43 214 129 128z m211 5 c7 -10 12 -45 12 -89 0 -58 -3 -73
-15 -73 -12 0 -15 14 -15 64 0 91 -29 114 -82 68 -13 -11 -18 -30 -18 -74 0
-45 -3 -58 -15 -58 -12 0 -15 17 -15 90 0 71 3 90 14 90 8 0 16 -6 19 -12 3
-10 7 -10 18 -2 31 25 74 23 97 -4z m212 -67 c0 -78 -3 -95 -15 -95 -12 0 -15
17 -15 95 0 78 3 95 15 95 12 0 15 -17 15 -95z m173 78 c8 -5 10 -33 1 -33 -3
0 -14 5 -26 11 -27 14 -70 3 -66 -18 2 -8 23 -23 47 -32 57 -21 70 -41 48 -74
-18 -28 -49 -37 -94 -25 -34 9 -48 22 -38 37 3 6 18 3 34 -7 24 -13 33 -14 56
-4 35 16 28 32 -20 49 -50 17 -65 31 -65 58 0 25 15 40 45 48 19 4 62 -1 78
-10z m297 -78 c0 -78 -3 -95 -15 -95 -12 0 -15 17 -15 95 0 78 3 95 15 95 12
0 15 -17 15 -95z m201 58 c15 -40 12 -153 -5 -153 -10 0 -15 19 -18 71 -2 47
-8 73 -18 79 -21 13 -24 13 -54 -11 -23 -18 -26 -28 -26 -80 0 -46 -3 -59 -15
-59 -12 0 -15 17 -15 90 0 73 3 90 15 90 8 0 15 -4 15 -9 0 -5 16 -3 36 4 47
16 73 9 85 -22z m288 26 c31 -11 61 -52 61 -84 0 -12 -14 -15 -76 -15 -66 0
-75 -2 -72 -17 2 -10 16 -24 31 -33 25 -14 30 -13 58 3 40 22 52 22 40 -2 -16
-30 -67 -43 -104 -27 -45 18 -62 42 -62 86 0 40 24 76 60 91 27 11 28 11 64
-2z m191 -9 c0 -12 -7 -20 -17 -20 -35 0 -53 -30 -53 -92 0 -45 -3 -58 -15
-58 -12 0 -15 17 -15 90 0 71 3 90 14 90 8 0 16 -5 18 -11 2 -6 14 -5 33 5 37
20 35 20 35 -4z m178 -3 c8 -6 12 -37 12 -88 0 -64 -3 -79 -15 -79 -12 0 -15
14 -15 70 0 76 -14 96 -57 79 -31 -11 -43 -40 -43 -98 0 -39 -4 -51 -15 -51
-12 0 -15 17 -15 90 0 71 3 90 14 90 8 0 16 -6 19 -12 3 -10 7 -10 18 -2 28
23 68 23 97 1z m6306 -6 c4 -5 -3 -7 -14 -4 -23 6 -26 13 -6 13 8 0 17 -4 20
-9z m21 -558 c-5 -21 -41 -41 -53 -29 -3 4 4 9 16 13 21 5 22 10 22 122 0 64
4 141 8 171 5 42 8 19 10 -100 1 -85 0 -165 -3 -177z m-297 255 c8 -8 12 -66
12 -194 0 -156 -2 -183 -17 -195 -11 -10 -57 -15 -165 -17 l-149 -3 -28 30
c-25 27 -36 31 -80 31 -42 0 -56 -5 -84 -30 -33 -29 -36 -29 -158 -31 -138 -2
-175 4 -190 32 -8 16 -6 19 11 19 27 0 27 36 0 52 -18 12 -20 24 -20 146 0 73
5 142 10 153 10 18 26 19 428 19 312 0 421 -3 430 -12z m-1098 -157 c0 -42 -4
-51 -26 -66 -54 -35 -154 -32 -154 5 0 10 -8 23 -17 29 -15 8 -16 11 -3 15 56
21 186 65 193 66 4 0 7 -22 7 -49z m-757 3 c40 -9 76 -20 80 -24 5 -4 -11 -15
-35 -24 -37 -14 -49 -15 -88 -3 -37 11 -46 17 -48 40 -4 32 -3 32 91 11z"/>
<path d="M8910 5805 l0 -65 55 0 55 0 0 45 c0 41 -2 45 -25 45 -18 0 -25 5
-25 20 0 16 -7 20 -30 20 l-30 0 0 -65z m50 25 c0 -5 -7 -10 -15 -10 -8 0 -15
5 -15 10 0 6 7 10 15 10 8 0 15 -4 15 -10z m33 -37 c-13 -2 -33 -2 -45 0 -13
2 -3 4 22 4 25 0 35 -2 23 -4z m0 -30 c-13 -2 -33 -2 -45 0 -13 2 -3 4 22 4
25 0 35 -2 23 -4z"/>
<path d="M8990 5860 c0 -5 5 -10 11 -10 5 0 7 5 4 10 -3 6 -8 10 -11 10 -2 0
-4 -4 -4 -10z"/>
<path d="M4838 5842 c-19 -22 -23 -37 -20 -66 5 -41 22 -50 22 -11 0 20 5 25
25 25 20 0 25 -5 25 -25 0 -39 27 -31 32 10 3 29 -1 40 -28 66 l-31 30 -25
-29z"/>
<path d="M4860 5755 c0 -8 5 -15 10 -15 6 0 10 7 10 15 0 8 -4 15 -10 15 -5 0
-10 -7 -10 -15z"/>
<path d="M6146 5844 c-7 -19 10 -44 29 -44 19 0 36 25 29 44 -3 9 -16 16 -29
16 -13 0 -26 -7 -29 -16z"/>
<path d="M6484 5805 c-9 -23 3 -45 26 -45 16 0 20 7 20 30 0 23 -4 30 -20 30
-11 0 -23 -7 -26 -15z"/>
<path d="M7410 5820 l0 -40 65 0 65 0 0 40 0 40 -65 0 -65 0 0 -40z m93 -2
c-26 -25 -83 -37 -62 -12 7 8 18 13 25 10 7 -3 18 2 24 10 7 8 17 14 23 14 6
0 2 -10 -10 -22z"/>
<path d="M11154 5806 c-9 -24 4 -48 23 -44 12 2 18 12 18 28 0 29 -32 41 -41
16z"/>
<path d="M6367 5810 c-4 -15 0 -20 13 -20 13 0 17 5 13 20 -3 11 -9 20 -13 20
-4 0 -10 -9 -13 -20z"/>
<path d="M7660 5830 c0 -15 7 -20 25 -20 18 0 25 5 25 20 0 15 -7 20 -25 20
-18 0 -25 -5 -25 -20z"/>
<path d="M9150 5830 c0 -17 5 -21 28 -18 16 2 27 9 27 18 0 9 -11 16 -27 18
-23 3 -28 -1 -28 -18z"/>
<path d="M5187 5806 c-10 -26 4 -47 27 -44 15 2 21 10 21 28 0 29 -38 41 -48
16z"/>
<path d="M5480 5806 c0 -11 9 -16 26 -16 31 0 28 23 -4 28 -15 2 -22 -2 -22
-12z"/>
<path d="M6597 5806 c-10 -26 4 -47 27 -44 15 2 21 10 21 28 0 29 -38 41 -48
16z"/>
<path d="M7844 5805 c-9 -23 3 -45 25 -45 10 0 21 7 25 15 8 23 -4 45 -25 45
-11 0 -22 -7 -25 -15z"/>
<path d="M8007 5813 c-15 -14 -6 -23 23 -23 22 0 28 4 24 15 -6 15 -35 20 -47
8z"/>
<path d="M9270 5806 c0 -11 9 -16 26 -16 31 0 28 23 -4 28 -15 2 -22 -2 -22
-12z"/>
<path d="M9770 5806 c0 -11 9 -16 26 -16 31 0 28 23 -4 28 -15 2 -22 -2 -22
-12z"/>
<path d="M11040 3766 c0 -2 8 -10 18 -17 15 -13 16 -12 3 4 -13 16 -21 21 -21
13z"/>
<path d="M10721 3544 c0 -11 3 -14 6 -6 3 7 2 16 -1 19 -3 4 -6 -2 -5 -13z"/>
<path d="M10720 3441 c0 -11 4 -22 9 -25 4 -3 6 6 3 19 -5 30 -12 33 -12 6z"/>
<path d="M11310 3507 c0 -19 10 -27 26 -20 21 8 17 33 -6 33 -11 0 -20 -6 -20
-13z"/>
<path d="M1947 3382 c-10 -10 -17 -22 -17 -25 0 -4 27 -7 60 -7 62 0 71 7 44
34 -21 22 -67 20 -87 -2z"/>
<path d="M2399 3382 c-45 -37 -16 -122 42 -122 29 0 59 36 59 70 0 34 -30 70
-59 70 -10 0 -29 -8 -42 -18z"/>
<path d="M3165 3378 l-15 -23 61 -3 c34 -2 64 -1 67 2 3 3 -3 15 -13 26 -25
28 -79 27 -100 -2z"/>
<path d="M3536 3384 c-27 -27 -18 -34 44 -34 63 0 71 7 42 33 -23 21 -66 22
-86 1z"/>
<path d="M9948 3043 c7 -3 16 -2 19 1 4 3 -2 6 -13 5 -11 0 -14 -3 -6 -6z"/>
<path d="M9950 3010 c-9 -6 -10 -10 -3 -10 6 0 15 5 18 10 8 12 4 12 -15 0z"/>
<path d="M3024 2599 c-19 -21 -18 -21 5 -40 26 -21 53 -18 84 9 33 30 16 52
-42 52 -16 0 -36 -9 -47 -21z"/>
<path d="M4458 2609 c-24 -13 -23 -46 1 -58 42 -23 118 35 80 60 -19 12 -60
11 -81 -2z"/>
<path d="M10562 2323 c2 -10 10 -18 18 -18 8 0 16 8 18 18 2 12 -3 17 -18 17
-15 0 -20 -5 -18 -17z"/>
<path d="M10672 2323 c2 -10 10 -18 18 -18 8 0 16 8 18 18 2 12 -3 17 -18 17
-15 0 -20 -5 -18 -17z"/>
<path d="M10782 2323 c2 -10 10 -18 18 -18 22 0 18 29 -3 33 -14 3 -18 -1 -15
-15z"/>
<path d="M10237 2303 c-3 -5 12 -8 33 -8 21 0 36 3 33 8 -2 4 -17 7 -33 7 -16
0 -31 -3 -33 -7z"/>
<path d="M10362 2298 c-7 -7 -12 -24 -12 -38 0 -32 17 -50 45 -50 25 0 55 29
55 52 0 36 -62 62 -88 36z m64 -16 c18 -28 1 -59 -33 -58 -23 1 -29 6 -31 30
-5 44 42 64 64 28z"/>
<path d="M10388 2273 c7 -3 16 -2 19 1 4 3 -2 6 -13 5 -11 0 -14 -3 -6 -6z"/>
<path d="M10610 2275 c0 -8 9 -15 20 -15 11 0 20 7 20 15 0 8 -9 15 -20 15
-11 0 -20 -7 -20 -15z"/>
<path d="M10720 2275 c0 -8 7 -15 15 -15 8 0 15 7 15 15 0 8 -7 15 -15 15 -8
0 -15 -7 -15 -15z"/>
<path d="M10311 2264 c0 -11 3 -14 6 -6 3 7 2 16 -1 19 -3 4 -6 -2 -5 -13z"/>
<path d="M10564 2239 c-10 -17 13 -36 27 -22 12 12 4 33 -11 33 -5 0 -12 -5
-16 -11z"/>
<path d="M10672 2233 c2 -10 10 -18 18 -18 22 0 18 29 -3 33 -14 3 -18 -1 -15
-15z"/>
<path d="M10780 2230 c0 -11 7 -20 15 -20 8 0 15 9 15 20 0 11 -7 20 -15 20
-8 0 -15 -9 -15 -20z"/>
<path d="M10280 2220 c-9 -6 -10 -10 -3 -10 6 0 15 5 18 10 8 12 4 12 -15 0z"/>
<path d="M10612 2183 c2 -10 10 -18 18 -18 22 0 18 29 -3 33 -14 3 -18 -1 -15
-15z"/>
<path d="M10722 2184 c4 -21 22 -23 26 -1 2 10 -3 17 -13 17 -10 0 -15 -6 -13
-16z"/>
<path d="M10560 1745 c0 -8 9 -15 20 -15 11 0 20 7 20 15 0 8 -9 15 -20 15
-11 0 -20 -7 -20 -15z"/>
<path d="M10670 1744 c0 -9 7 -14 17 -12 25 5 28 28 4 28 -12 0 -21 -6 -21
-16z"/>
<path d="M10780 1745 c0 -8 7 -15 15 -15 8 0 15 7 15 15 0 8 -7 15 -15 15 -8
0 -15 -7 -15 -15z"/>
<path d="M10112 1721 c-11 -7 -10 -10 3 -15 24 -9 37 -7 30 4 -3 6 1 7 9 4 26
-10 19 -33 -9 -30 -14 1 -28 6 -32 9 -12 12 -23 7 -23 -10 0 -15 2 -16 10 -3
7 11 10 11 10 2 0 -7 6 -12 13 -11 27 3 48 -2 42 -10 -3 -5 -19 -8 -37 -6 -28
4 -29 3 -13 -9 21 -15 49 -11 66 10 9 11 8 14 -2 14 -10 0 -10 3 -1 12 28 28
-29 63 -66 39z"/>
<path d="M10232 1718 c-7 -7 -11 -23 -11 -37 l2 -26 4 25 c3 14 10 31 15 38
13 15 6 16 -10 0z"/>
<path d="M10617 1714 c-14 -14 -7 -35 11 -32 9 2 17 10 17 17 0 16 -18 25 -28
15z"/>
<path d="M10726 1713 c-12 -12 -6 -33 9 -33 8 0 15 6 15 14 0 17 -14 28 -24
19z"/>
<path d="M10311 1684 c0 -11 3 -14 6 -6 3 7 2 16 -1 19 -3 4 -6 -2 -5 -13z"/>
<path d="M10560 1655 c0 -8 9 -15 20 -15 11 0 20 7 20 15 0 8 -9 15 -20 15
-11 0 -20 -7 -20 -15z"/>
<path d="M10670 1655 c0 -8 9 -15 20 -15 11 0 20 7 20 15 0 8 -9 15 -20 15
-11 0 -20 -7 -20 -15z"/>
<path d="M10780 1655 c0 -10 7 -15 18 -13 21 4 19 22 -2 26 -10 2 -16 -3 -16
-13z"/>
<path d="M10280 1644 c-17 -9 -20 -14 -9 -14 9 0 22 7 29 15 15 18 13 18 -20
-1z"/>
<path d="M10610 1606 c0 -10 9 -16 21 -16 24 0 21 23 -4 28 -10 2 -17 -3 -17
-12z"/>
<path d="M10720 1605 c0 -8 7 -15 15 -15 8 0 15 7 15 15 0 8 -7 15 -15 15 -8
0 -15 -7 -15 -15z"/>
<path d="M1660 1545 l0 -95 43 0 c60 1 97 36 97 94 0 61 -38 96 -105 96 l-35
0 0 -95z"/>
<path d="M1902 1498 c-17 -17 -15 -45 4 -52 27 -10 43 -7 65 15 16 16 18 23 8
35 -14 17 -61 18 -77 2z"/>
<path d="M2216 1494 c-22 -22 -20 -33 9 -46 32 -14 75 3 75 31 0 32 -57 43
-84 15z"/>
<path d="M3000 1560 c-29 -29 -17 -40 45 -40 30 0 56 4 60 10 9 15 -32 50 -60
50 -14 0 -34 -9 -45 -20z"/>
<path d="M4416 1564 c-31 -31 -20 -44 38 -44 63 0 75 11 46 40 -24 24 -63 26
-84 4z"/>
<path d="M10565 1181 c-8 -15 3 -31 21 -31 9 0 14 7 12 17 -4 20 -24 28 -33
14z"/>
<path d="M10674 1179 c-10 -17 13 -36 27 -22 12 12 4 33 -11 33 -5 0 -12 -5
-16 -11z"/>
<path d="M10780 1170 c0 -23 25 -27 33 -6 7 16 -1 26 -20 26 -7 0 -13 -9 -13
-20z"/>
<path d="M10246 1151 c-4 -5 3 -7 14 -4 11 3 28 -1 38 -8 15 -13 16 -12 3 4
-14 18 -46 23 -55 8z"/>
<path d="M10368 1149 c-21 -12 -24 -62 -4 -78 22 -18 67 -9 79 16 7 17 6 28
-7 48 -17 26 -39 31 -68 14z m56 -21 c14 -20 14 -24 -1 -40 -35 -39 -86 7 -53
48 18 20 36 17 54 -8z"/>
<path d="M10617 1134 c-14 -14 -7 -35 11 -32 9 2 17 10 17 17 0 16 -18 25 -28
15z"/>
<path d="M10720 1120 c0 -11 7 -20 15 -20 8 0 15 9 15 20 0 11 -7 20 -15 20
-8 0 -15 -9 -15 -20z"/>
<path d="M10311 1104 c0 -11 3 -14 6 -6 3 7 2 16 -1 19 -3 4 -6 -2 -5 -13z"/>
<path d="M10560 1075 c0 -8 9 -15 20 -15 11 0 20 7 20 15 0 8 -9 15 -20 15
-11 0 -20 -7 -20 -15z"/>
<path d="M10670 1075 c0 -10 7 -15 18 -13 21 4 19 22 -2 26 -10 2 -16 -3 -16
-13z"/>
<path d="M10780 1075 c0 -8 7 -15 15 -15 8 0 15 7 15 15 0 8 -7 15 -15 15 -8
0 -15 -7 -15 -15z"/>
<path d="M10613 1034 c-7 -19 2 -28 22 -21 19 8 19 23 0 31 -9 3 -18 -1 -22
-10z"/>
<path d="M10727 1043 c-13 -12 -7 -33 8 -33 8 0 15 9 15 20 0 20 -11 26 -23
13z"/>
</g>
</svg>
